<?xml version="1.0" encoding="utf-8"?>
<!-- Generator: Adobe Illustrator 26.0.1, SVG Export Plug-In . SVG Version: 6.00 Build 0)  -->
<svg version="1.1" id="Layer_1" xmlns="http://www.w3.org/2000/svg" xmlns:xlink="http://www.w3.org/1999/xlink" x="0px" y="0px"
	 viewBox="0 0 79 79" style="enable-background:new 0 0 79 79;" xml:space="preserve">
<style type="text/css">
	.st0{opacity:0.4;fill:#0C0B30;}
</style>
<path class="st0" d="M33.2,1.5c0.7-0.7,1.9-0.7,2.6,0c0,0,0,0,0,0l1.3,1.3L9.4,30.6c-2.2,2.2-2.1,5.8,0.1,8l12.1,12.1
	c-1,2.1-0.6,4.7,1.1,6.4c1.7,1.7,4.2,2.1,6.4,1.1l12.1,12.1c2.2,2.2,5.8,2.3,8,0.1l27.8-27.8l1.3,1.3c0.7,0.7,0.7,1.9,0,2.6
	c0,0,0,0,0,0L46.6,78.4c-0.7,0.7-1.9,0.7-2.6,0c0,0,0,0,0,0L29.1,63.5c-2.1,1-4.7,0.6-6.4-1.1l-5.3-5.3c-1.7-1.7-2.1-4.2-1.1-6.4
	L1.5,35.9c-0.7-0.7-0.7-1.9,0-2.6c0,0,0,0,0,0L33.2,1.5z M59.7,22.8c1.9,0.3,3.8,1.1,5.3,2.6L75.6,36c0.7,0.7,0.7,1.9,0,2.6
	c0,0,0,0,0,0L46.5,67.7c-0.7,0.7-1.9,0.7-2.6,0c0,0,0,0,0,0L30.7,54.5c-0.7-0.7-1.9-0.7-2.6,0L59.7,22.8z M49.2,6.9
	c0.7-0.7,1.9-0.7,2.6,0c0,0,0,0,0,0c4.5,4.5,5.9,9,6.2,12.3L27.7,49.6C28,48,28.9,42.1,22.7,36c-0.7-0.7-0.7-1.9,0-2.6c0,0,0,0,0,0
	L49.2,6.9z M41.3,4.2c0.7-0.7,1.9-0.7,2.6,0c0,0,0,0,0,0l1.3,1.3L20.1,30.7c-2.2,2.2-2.2,5.7,0,7.9c4,4,4.2,7.7,4,9.3l-12-12
	c-0.7-0.7-0.7-1.9,0-2.6c0,0,0,0,0,0L41.3,4.2z"/>
</svg>
