<?xml version="1.0" encoding="utf-8"?>
<!-- Generator: Adobe Illustrator 26.0.1, SVG Export Plug-In . SVG Version: 6.00 Build 0)  -->
<svg version="1.1" id="Layer_1" xmlns="http://www.w3.org/2000/svg" xmlns:xlink="http://www.w3.org/1999/xlink" x="0px" y="0px"
	 viewBox="0 0 76 77" style="enable-background:new 0 0 76 77;" xml:space="preserve">
<style type="text/css">
	.st0{opacity:0.4;fill:#0C0B30;}
</style>
<path class="st0" d="M60.9,71.8L73.2,52c3.3-5.4,3.8-13.8-2.3-19.9L44.6,5.7C40.1,1.2,32-1.2,24.6,3.4L4.8,15.7
	C-0.6,19-1.5,26.5,3,31c1.9,1.9,4.7,2.7,7.3,2l7.8-1.9c1.3-0.3,2.8,0.1,3.7,1l22.6,22.6c1,1,1.4,2.4,1,3.7l-1.9,7.8
	c-0.7,2.6,0.1,5.4,2,7.3C50.1,78.1,57.6,77.3,60.9,71.8z M36.7,25.7l-1.9-1.9l-1.9,1.9c-0.9,0.9-2.4,0.9-3.3,0
	c-0.9-0.9-0.9-2.4,0-3.3l1.9-1.9l-1.9-1.9c-0.9-0.9-0.9-2.4,0-3.3c0.9-0.9,2.4-0.9,3.3,0l1.9,1.9l1.9-1.9c0.9-0.9,2.4-0.9,3.3,0
	c0.9,0.9,0.9,2.4,0,3.3l-1.9,1.9l1.9,1.9c0.9,0.9,0.9,2.4,0,3.3C39.1,26.6,37.6,26.6,36.7,25.7z M50.9,39.9c-0.9-0.9-0.9-2.4,0-3.3
	c0.9-0.9,2.4-0.9,3.3,0c0,0,0,0,0,0c0.9,0.9,0.9,2.4-0.1,3.3C53.2,40.8,51.8,40.8,50.9,39.9L50.9,39.9z M50.9,47
	C50,46.1,50,44.6,51,43.7c0.9-0.9,2.3-0.9,3.2,0c0.9,0.9,0.8,2.4-0.1,3.3C53.2,47.9,51.8,47.9,50.9,47L50.9,47z M58,39.9
	c-0.9-0.9-0.9-2.4,0-3.3c0.9-0.9,2.4-0.9,3.3,0c0.9,0.9,0.9,2.4,0,3.3c0,0,0,0,0,0C60.4,40.8,58.9,40.8,58,39.9z M58,47
	c-0.9-0.9-0.8-2.4,0.1-3.3c0.9-0.8,2.3-0.8,3.2,0c0.9,0.9,0.8,2.4-0.1,3.3C60.3,47.9,58.9,47.9,58,47z"/>
</svg>
