<?xml version="1.0" encoding="utf-8"?>
<!-- Generator: Adobe Illustrator 26.0.1, SVG Export Plug-In . SVG Version: 6.00 Build 0)  -->
<svg version="1.1" id="Layer_1" xmlns="http://www.w3.org/2000/svg" xmlns:xlink="http://www.w3.org/1999/xlink" x="0px" y="0px"
	 viewBox="0 0 67 67" style="enable-background:new 0 0 67 67;" xml:space="preserve">
<style type="text/css">
	.st0{opacity:0.68;fill:#0C0B30;}
</style>
<path class="st0" d="M0.9,50.8c0.1,1.7,0.2,3.5,0.3,5.3l0,0l0.4,6c0.1,0.8,0.4,1.5,1,2.1c0.5,0.5,1.3,0.9,2.1,1l6,0.4l0,0
	c12.1,0.8,21.2,1.2,29,0.5c9-0.9,15.4-3.4,20-8.1c8.4-8.4,8.4-21.6,0-30c-3.8-3.8-9-6.1-14.3-6.5C45,16.2,42.7,11,38.9,7.2
	c-8.4-8.4-21.6-8.4-30,0C-1.3,17.4-0.4,30.7,0.9,50.8z M21.4,27.1l6.2,6.2l6.2-6.2l6.2,6.2l-6.2,6.2l6.2,6.2l-6.2,6.2l-6.2-6.2
	l-6.2,6.2l-6.2-6.2l6.2-6.2l-6.2-6.2L21.4,27.1L21.4,27.1z"/>
</svg>
