<?xml version="1.0" encoding="utf-8"?>
<!-- Generator: Adobe Illustrator 26.0.1, SVG Export Plug-In . SVG Version: 6.00 Build 0)  -->
<svg version="1.1" id="Layer_1" xmlns="http://www.w3.org/2000/svg" xmlns:xlink="http://www.w3.org/1999/xlink" x="0px" y="0px"
	 viewBox="0 0 79 79" style="enable-background:new 0 0 79 79;" xml:space="preserve">
<style type="text/css">
	.st0{opacity:0.4;fill:#0C0B30;}
</style>
<path class="st0" d="M18.7,10.4l15.5,30.9c0.3,0.7,0.7,1.3,1.3,1.9c0.6,0.6,1.2,1,1.7,1.2L68.2,60L52.5,75.7
	c-3.1,3.1-8.2,3.1-11.3,0c0,0,0,0,0,0L2.9,37.5c-3.1-3.1-3.1-8.2,0-11.3c0,0,0,0,0,0L18.7,10.4z M38,2.4l10.8,10.8l2.1-2.1
	c2.3-2.3,6-2.3,8.3,0l8.3,8.3c2.3,2.3,2.3,6,0,8.3l-2.1,2.1l10.8,10.8c3.1,3.1,3.1,8.2,0,11.3c0,0,0,0,0,0l-4.7,4.7L39.1,40.5
	c-0.2-0.1-0.4-0.2-0.6-0.4c-0.2-0.2-0.3-0.4-0.4-0.6L22,7.2l4.7-4.7C29.8-0.7,34.9-0.7,38,2.4C38,2.4,38,2.4,38,2.4L38,2.4z
	 M55.1,15.3L53,17.4l8.3,8.3l2.1-2.1C63.3,23.6,55.1,15.3,55.1,15.3z"/>
</svg>
