<?xml version="1.0" encoding="utf-8"?>
<!-- Generator: Adobe Illustrator 26.0.1, SVG Export Plug-In . SVG Version: 6.00 Build 0)  -->
<svg version="1.1" id="Layer_1" xmlns="http://www.w3.org/2000/svg" xmlns:xlink="http://www.w3.org/1999/xlink" x="0px" y="0px"
	 viewBox="0 0 81 55" style="enable-background:new 0 0 81 55;" xml:space="preserve">
<style type="text/css">
	.st0{opacity:0.4;fill:#0C0B30;}
</style>
<path class="st0" d="M33.4,0.6L49.8,1c0.3,0,0.6,0.1,0.9,0.4l10,10c0.9,0.9,1.4,2.1,1.5,3.3l0.5,12.9c0,0.5,0.4,0.9,0.9,0.9l9.6,0
	c2.4,0,4.4,2,4.4,4.4v0.3c0,1.2-0.5,2.3-1.3,3.1c-0.8,0.8-1.9,1.3-3.1,1.3H57.4c-2.3,0-4.4-2-4.4-4.4l0-8.4l-12,0l0,15.2
	c0,0.4-0.2,0.8-0.6,1.1L22.3,53.3c-1.4,0.8-3,1-4.4,0.5c-0.8-0.3-1.4-0.7-2-1.2c-0.5-0.5-0.9-1.2-1.2-1.8c-0.9-2.3,0.1-4.9,2.3-6.3
	l12.3-9l0.3-11.3L16,24.6c-0.4,0-0.7-0.1-1-0.4L2.2,11.4c-1-1-1.5-2.4-1.5-3.8c0-1.4,0.7-2.8,1.7-3.7c2-1.8,5.2-1.7,7.3,0.3l8.6,8.6
	l29.4-1.6l-2.1-2.1L33.3,9.4c-1.2,0-2.4-0.4-3.3-1.3l0,0c-0.9-0.9-1.3-2.1-1.3-3.3C28.8,2.5,30.9,0.6,33.4,0.6z M67.1,12.4
	c3-3,7.9-3,11,0c3,3,3,7.9,0,11c-3,3-7.9,3-11,0C64.1,20.3,64.1,15.4,67.1,12.4z"/>
</svg>
