<?xml version="1.0" encoding="utf-8"?>
<!-- Generator: Adobe Illustrator 26.0.1, SVG Export Plug-In . SVG Version: 6.00 Build 0)  -->
<svg version="1.1" id="Layer_1" xmlns="http://www.w3.org/2000/svg" xmlns:xlink="http://www.w3.org/1999/xlink" x="0px" y="0px"
	 viewBox="0 0 75 100" style="enable-background:new 0 0 75 100;" xml:space="preserve">
<style type="text/css">
	.st0{opacity:0.4;}
	.st1{fill:#0C0B30;}
</style>
<g class="st0">
	<path class="st1" d="M45.8,46.6c4.8,4.8,13.1,5.8,19.3-0.4c5.2-5.2,5.2-13.7,0-18.9L47.2,9.4C42.3,4.6,34,3.7,27.9,9.8
		c-4.7,4.7-5.2,12.1-1.4,17.3l-6.3,6.3c-1.3,1.3-0.3,3.6,1.6,3.5l13.5-0.8L45.8,46.6L45.8,46.6z M57.2,35.1c1,1,1,2.6,0,3.6
		s-2.6,1-3.6,0c0,0,0,0,0,0c-1-1-1-2.6,0-3.6S56.2,34.1,57.2,35.1L57.2,35.1z M35.7,20.9c-1-1-1.1-2.6-0.1-3.6c1-1,2.6-1.1,3.6-0.1
		c0,0,0.1,0,0.1,0.1c1,1,1,2.6,0,3.6C38.3,21.9,36.7,21.9,35.7,20.9L35.7,20.9z M48.3,26.2c1,1,1,2.6,0,3.6c-1,1-2.6,1-3.6,0
		c0,0,0,0,0,0c-1-1-1-2.6,0-3.6C45.7,25.2,47.3,25.2,48.3,26.2z M55.2,63.7L37.2,45.8c-5.2-5.2-13.7-5.2-18.9,0
		C12.3,51.8,13.1,60.2,18,65l10.5,10.5L27.7,89c-0.1,1.9,2.2,2.9,3.5,1.6l6.3-6.3c5.2,3.8,12.6,3.3,17.3-1.4
		C60.8,76.9,60,68.6,55.2,63.7z M25.8,57.2c-1-1-1-2.6,0-3.6s2.6-1,3.6,0c1,1,1,2.6,0,3.6C28.4,58.2,26.8,58.2,25.8,57.2L25.8,57.2z
		 M34.7,66.2c-1-1-1.1-2.6-0.1-3.6c1-1,2.6-1.1,3.6-0.1c0,0,0.1,0,0.1,0.1c1,1,1,2.6,0,3.6C37.3,67.1,35.7,67.1,34.7,66.2L34.7,66.2
		z M43.7,75.1c-1-1-1-2.6,0-3.6c1-1,2.6-1,3.6,0l0,0c1,1,1,2.6,0,3.6C46.3,76.1,44.7,76.1,43.7,75.1L43.7,75.1z"/>
</g>
</svg>
